<?xml version="1.0" standalone="no"?>
<!DOCTYPE svg PUBLIC "-//W3C//DTD SVG 20010904//EN"
 "http://www.w3.org/TR/2001/REC-SVG-20010904/DTD/svg10.dtd">
<svg version="1.0" xmlns="http://www.w3.org/2000/svg"
 width="818.000000pt" height="305.000000pt" viewBox="0 0 818.000000 305.000000"
 preserveAspectRatio="xMidYMid meet">

<g transform="translate(0.000000,305.000000) scale(0.100000,-0.100000)"
fill="#000000" stroke="none">
<path d="M3940 3034 c-605 -56 -1123 -342 -1475 -815 -106 -142 -225 -358
-266 -484 -21 -63 -4 -54 -282 -160 -54 -21 -95 -40 -92 -43 3 -4 68 -29 143
-58 75 -28 137 -56 136 -62 -1 -7 -2 -25 -2 -42 -2 -22 -7 -30 -20 -30 -10 0
-105 29 -212 65 -106 36 -195 63 -198 61 -2 -3 -39 -89 -82 -193 -42 -103
-123 -298 -179 -433 -56 -135 -111 -266 -122 -293 l-19 -48 23 -8 c148 -56
410 -137 697 -215 449 -123 961 -206 1520 -248 212 -15 826 -15 1040 1 610 45
1190 139 1680 273 332 90 654 186 676 201 8 5 -12 64 -67 194 -342 810 -312
745 -339 740 -14 -2 -106 -30 -204 -61 -99 -31 -189 -56 -200 -54 -17 2 -23
13 -29 57 -5 29 -5 57 0 61 8 8 127 47 228 75 69 19 66 22 -48 61 -40 13 -113
41 -163 60 l-91 36 -33 87 c-65 175 -197 395 -333 558 -316 376 -762 626
-1247 698 -105 16 -356 27 -440 19z m-139 -223 c38 -39 40 -93 4 -131 l-25
-26 45 -169 c67 -251 59 -233 106 -231 33 1 46 -5 65 -27 33 -38 33 -105 2
-135 -24 -22 -212 -72 -272 -72 -68 0 -110 68 -82 134 8 20 19 36 23 36 4 0
14 4 21 9 14 8 11 19 -85 359 l-14 52 -45 0 c-60 0 -94 32 -94 88 0 61 27 86
117 110 155 41 195 42 234 3z m615 -16 c29 -12 41 -27 69 -89 30 -64 68 -184
90 -281 l7 -30 20 50 c10 27 30 88 44 135 29 103 49 124 112 117 90 -10 107
-61 68 -199 -49 -170 -149 -369 -228 -451 -35 -37 -40 -39 -80 -34 -71 9 -81
29 -108 216 -12 89 -27 158 -31 154 -4 -4 -13 -61 -19 -127 -6 -65 -15 -127
-20 -137 -26 -47 -115 -55 -157 -13 -26 26 -26 27 -19 132 7 129 28 253 61
365 38 133 60 176 97 192 42 18 51 18 94 0z m-1415 -361 c47 -24 60 -65 41
-133 -15 -54 -24 -263 -11 -275 12 -13 173 15 226 39 85 38 129 32 158 -25 32
-62 12 -106 -66 -145 -54 -28 -156 -55 -206 -55 -45 0 -41 -13 12 -45 25 -14
52 -37 61 -51 24 -35 13 -102 -21 -131 -45 -39 -71 -31 -206 61 -88 60 -397
359 -415 401 -28 67 16 130 92 130 42 0 48 -4 95 -57 28 -32 54 -58 57 -58 4
0 8 35 10 77 8 215 75 318 173 267z m2456 -159 c62 -64 133 -169 133 -198 0
-65 -83 -117 -139 -87 -18 9 -95 -51 -289 -226 l-43 -39 16 -39 c13 -32 14
-44 4 -68 -25 -62 -103 -89 -147 -50 -37 31 -162 194 -168 219 -8 31 12 78 42
98 27 18 73 20 107 4 23 -10 36 -2 181 126 l156 137 -20 25 c-49 62 1 152 84
153 23 0 42 -12 83 -55z m-1152 -384 c337 -69 632 -313 757 -627 20 -49 39
-106 43 -126 l7 -35 -79 -11 c-359 -50 -848 -72 -1208 -53 -330 17 -724 57
-743 76 -10 10 39 147 84 235 140 273 408 475 714 541 117 24 306 25 425 0z
m-1840 -821 c78 -34 125 -101 105 -151 -23 -54 -86 -63 -144 -19 -96 72 -181
8 -201 -150 -11 -92 20 -136 104 -147 30 -4 48 0 74 16 62 38 117 19 133 -46
10 -38 -13 -71 -67 -100 -150 -78 -349 -4 -393 146 -47 160 30 382 156 447 69
36 157 38 233 4z m3414 -25 c33 -16 41 -33 41 -79 0 -49 -25 -65 -121 -77 -46
-5 -87 -13 -90 -17 -4 -4 -9 -24 -12 -46 l-6 -39 72 9 c111 12 128 10 154 -20
28 -33 30 -79 4 -105 -21 -21 -42 -26 -151 -39 -65 -7 -65 -7 -61 -37 6 -57
18 -68 64 -61 128 19 167 19 186 2 43 -39 33 -115 -17 -135 -85 -34 -232 -41
-288 -15 -67 32 -99 108 -116 276 -18 173 9 304 72 350 14 10 63 24 115 32
118 18 121 18 154 1z m-2774 -104 c73 -32 134 -118 149 -207 18 -109 -74 -283
-178 -336 -98 -50 -235 14 -292 137 -29 61 -32 170 -8 257 42 149 182 212 329
149z m749 10 c58 -10 86 -38 86 -85 0 -22 -8 -40 -25 -56 -22 -21 -31 -22 -92
-17 -61 5 -157 -3 -167 -14 -2 -2 -6 -23 -10 -46 l-6 -42 109 6 110 6 31 -32
c27 -27 31 -37 26 -64 -11 -52 -37 -71 -98 -68 -67 2 -158 -17 -165 -35 -3 -7
2 -49 11 -92 23 -112 21 -137 -10 -161 -33 -26 -75 -27 -103 -3 -50 40 -82
363 -58 566 12 91 29 108 127 125 41 7 80 15 85 16 19 6 100 4 149 -4z m744
-27 c22 -25 28 -57 16 -89 -11 -28 -56 -43 -139 -43 -44 -1 -93 -5 -110 -10
-27 -8 -30 -13 -33 -56 l-3 -49 28 7 c15 4 66 10 113 13 81 5 86 4 113 -20 34
-33 36 -79 4 -111 -18 -18 -38 -24 -97 -29 -94 -8 -140 -23 -140 -46 0 -10 9
-53 20 -96 27 -105 26 -129 -6 -154 -32 -25 -71 -27 -101 -6 -51 36 -88 230
-88 461 0 154 2 174 19 193 35 39 196 72 311 64 58 -4 74 -9 93 -29z m651 10
c26 -33 27 -75 2 -105 -16 -20 -31 -24 -106 -30 -48 -4 -91 -11 -95 -15 -5 -5
-10 -25 -12 -44 l-3 -35 93 4 c86 3 95 1 118 -20 17 -16 24 -33 24 -59 0 -63
-15 -73 -132 -85 l-103 -10 3 -35 c6 -57 15 -61 117 -49 81 9 92 8 114 -9 34
-25 46 -64 29 -99 -21 -45 -59 -57 -190 -57 -139 -1 -157 8 -203 99 -28 56
-30 68 -34 198 -4 157 8 241 45 304 32 56 74 68 236 72 72 1 78 -1 97 -25z"/>
<path d="M2935 748 c-27 -93 -11 -176 38 -199 52 -24 117 62 117 153 0 39 -5
50 -31 72 -21 18 -42 26 -69 26 -39 0 -40 -1 -55 -52z"/>
<path d="M550 2479 c0 -7 43 -153 95 -324 52 -171 95 -318 95 -327 0 -30 -243
-73 -653 -116 -37 -4 -68 -11 -68 -16 -1 -13 291 -174 572 -316 325 -164 763
-350 780 -333 5 5 49 107 99 228 50 121 100 240 113 264 l22 44 258 95 c141
53 257 98 257 102 0 3 -33 14 -72 24 -123 31 -446 141 -588 201 -268 114 -534
251 -750 388 -155 98 -160 100 -160 86z m407 -748 c184 -61 469 -139 576 -156
20 -3 37 -11 37 -16 0 -6 -46 -121 -102 -255 -98 -233 -104 -245 -126 -239
-89 22 -481 194 -757 332 -192 96 -535 284 -535 294 0 4 37 10 82 13 191 17
582 76 597 92 8 8 19 4 228 -65z"/>
<path d="M7520 2404 c-242 -154 -604 -339 -865 -443 -139 -55 -484 -171 -509
-171 -24 0 -86 -21 -86 -29 0 -5 10 -11 23 -15 12 -3 130 -46 262 -95 l239
-89 108 -258 c59 -141 111 -261 117 -267 11 -11 48 0 195 60 281 115 708 320
926 445 52 30 125 71 163 92 37 20 67 41 67 45 0 4 -55 14 -122 20 -175 18
-377 47 -495 72 -86 18 -103 25 -103 40 0 10 43 159 95 331 53 171 94 316 93
320 -2 5 -50 -21 -108 -58z m90 -657 c74 -14 203 -32 285 -42 83 -9 172 -20
199 -23 l49 -7 -164 -91 c-242 -135 -451 -242 -654 -335 -238 -108 -497 -211
-506 -202 -19 20 -211 484 -205 498 2 7 26 15 53 19 103 14 347 80 538 146
222 76 198 74 405 37z"/>
</g>
</svg>
