<svg width="28" height="28" viewBox="0 0 28 28" fill="none" xmlns="http://www.w3.org/2000/svg">
<path d="M26.2967 7.48996C26.1581 6.93627 25.8758 6.42896 25.4784 6.01927C25.081 5.60957 24.5826 5.31201 24.0333 5.15663C22.0267 4.66663 14 4.66663 14 4.66663C14 4.66663 5.97335 4.66663 3.96668 5.20329C3.41747 5.35867 2.91899 5.65624 2.52159 6.06593C2.12418 6.47563 1.84194 6.98294 1.70335 7.53663C1.3361 9.57311 1.15646 11.639 1.16668 13.7083C1.15359 15.7932 1.33324 17.8748 1.70335 19.9266C1.85614 20.4631 2.14471 20.9511 2.54118 21.3435C2.93766 21.7359 3.42864 22.0194 3.96668 22.1666C5.97335 22.7033 14 22.7033 14 22.7033C14 22.7033 22.0267 22.7033 24.0333 22.1666C24.5826 22.0112 25.081 21.7137 25.4784 21.304C25.8758 20.8943 26.1581 20.387 26.2967 19.8333C26.6611 17.8121 26.8407 15.762 26.8333 13.7083C26.8464 11.6234 26.6668 9.54177 26.2967 7.48996Z" stroke="#555555" stroke-width="2" stroke-linecap="round" stroke-linejoin="round"/>
<path d="M11.375 17.5233L18.0833 13.7083L11.375 9.89331V17.5233Z" stroke="#555555" stroke-width="2" stroke-linecap="round" stroke-linejoin="round"/>
</svg>
